<svg xmlns="http://www.w3.org/2000/svg" viewBox="0 0 1366 607" preserveAspectRatio="xMidYMid" width="200" height="20" style="shape-rendering: auto; display: block; background: rgb(255, 255, 255);"><g data-idx="1"><linearGradient y2="0" y1="0" x2="1" x1="0" id="lg-nq4q5u6dq7r" data-idx="2">
  <stop offset="0" stop-color="#ff00ff" data-idx="3"></stop>
  <stop offset="1" stop-color="#00ffff" data-idx="4"></stop>
</linearGradient><path opacity="0.4" fill="url(#lg-nq4q5u6dq7r)" d="M 0 0 L 0 442.539 Q 136.6 423.224 273.2 395.854 T 546.4 296.768 T 819.6 288.137 T 1092.8 226.124 T 1366 217.373 L 1366 0 Z" data-idx="5">
  
</path><path opacity="0.4" fill="url(#lg-nq4q5u6dq7r)" d="M 0 0 L 0 360.403 Q 136.6 349.183 273.2 327.097 T 546.4 360.857 T 819.6 310.918 T 1092.8 244.384 T 1366 242.688 L 1366 0 Z" data-idx="7">
  
</path><path opacity="0.4" fill="url(#lg-nq4q5u6dq7r)" d="M 0 0 L 0 450.431 Q 136.6 359.637 273.2 311.548 T 546.4 320.17 T 819.6 330.007 T 1092.8 210.644 T 1366 226.038 L 1366 0 Z" data-idx="9">
  
</path><path opacity="0.4" fill="url(#lg-nq4q5u6dq7r)" d="M 0 0 L 0 396.862 Q 136.6 388.307 273.2 349.51 T 546.4 285.064 T 819.6 300.431 T 1092.8 229.244 T 1366 160.969 L 1366 0 Z" data-idx="11">
  
</path><path opacity="0.4" fill="url(#lg-nq4q5u6dq7r)" d="M 0 0 L 0 388.743 Q 136.6 370.121 273.2 352.936 T 546.4 345.407 T 819.6 255.721 T 1092.8 182.201 T 1366 216.399 L 1366 0 Z" data-idx="13">
  
</path><g data-idx="15"></g></g><text data-watermark="true" text-anchor="middle" dominant-baseline="middle" stroke-opacity="0.1" fill="black" fill-opacity="0.1" stroke="white" stroke-width="1" font-size="15.0" x="683.0" y="303.5" data-idx="16" style="opacity: 1; font-size: 15px;">LOADING.IO</text></svg>